<svg width="121.000000" height="53.000000" viewBox="0 0 121 53" fill="none" xmlns="http://www.w3.org/2000/svg" xmlns:xlink="http://www.w3.org/1999/xlink">
	<desc>
			Created with Pixso.
	</desc>
	<defs>
		<clipPath id="clip935_4173">
			<rect id="logoo1_final_light 2" rx="0.000000" width="120.000000" height="52.000000" transform="translate(0.500000 0.500000)" fill="white" fill-opacity="0"/>
		</clipPath>
	</defs>
	<g style="mix-blend-mode:luminosity">
		<rect id="logoo1_final_light 2" rx="0.000000" width="120.000000" height="52.000000" transform="translate(0.500000 0.500000)" fill="#FFFFFF" fill-opacity="0"/>
		<g clip-path="url(#clip935_4173)">
			<path id="Vector" d="M56.25 50.49L55.4 50.49L55.4 45.15L56.25 45.15L56.25 50.49Z" fill="#E2E2E2" fill-opacity="1.000000" fill-rule="nonzero"/>
			<path id="Vector" d="M59.3 50.49C59.26 50.42 59.23 50.3 59.2 50.14C58.93 50.43 58.59 50.56 58.2 50.56C57.81 50.56 57.51 50.46 57.27 50.24C57.03 50.02 56.91 49.76 56.91 49.44C56.91 49.04 57.06 48.73 57.36 48.52C57.66 48.3 58.09 48.2 58.65 48.2L59.17 48.2L59.17 47.95C59.17 47.75 59.12 47.6 59.01 47.48C58.9 47.36 58.73 47.31 58.5 47.31C58.31 47.31 58.15 47.35 58.03 47.45C57.91 47.55 57.85 47.67 57.85 47.82L57 47.82C57 47.61 57.06 47.42 57.2 47.24C57.34 47.06 57.53 46.92 57.76 46.82C58 46.72 58.26 46.67 58.55 46.67C58.99 46.67 59.35 46.78 59.61 47C59.87 47.22 60.01 47.53 60.02 47.93L60.02 49.63C60.02 49.97 60.07 50.24 60.16 50.44L60.16 50.5L59.29 50.5L59.3 50.49ZM58.36 49.89C58.53 49.89 58.69 49.84 58.84 49.76C58.99 49.68 59.1 49.57 59.17 49.44L59.17 48.73L58.71 48.73C58.4 48.73 58.16 48.78 58 48.89C57.84 49 57.76 49.16 57.76 49.35C57.76 49.52 57.82 49.64 57.92 49.74C58.03 49.84 58.18 49.89 58.36 49.89L58.36 49.89Z" fill="#E2E2E2" fill-opacity="1.000000" fill-rule="nonzero"/>
			<path id="Vector" d="M61.55 46.73L61.58 47.16C61.86 46.83 62.23 46.66 62.68 46.66C63.47 46.66 63.87 47.11 63.88 48.01L63.88 50.49L63.03 50.49L63.03 48.06C63.03 47.82 62.98 47.64 62.88 47.53C62.77 47.41 62.6 47.35 62.37 47.35C62.02 47.35 61.77 47.51 61.6 47.82L61.6 50.49L60.75 50.49L60.75 46.73L61.55 46.73L61.55 46.73Z" fill="#E2E2E2" fill-opacity="1.000000" fill-rule="nonzero"/>
			<path id="Vector" d="M64.46 48.59C64.46 48 64.6 47.54 64.87 47.18C65.15 46.83 65.51 46.66 65.97 46.66C66.41 46.66 66.74 46.81 66.99 47.11L67.03 46.73L67.8 46.73L67.8 50.38C67.8 50.87 67.64 51.26 67.33 51.55C67.03 51.83 66.61 51.97 66.08 51.97C65.81 51.97 65.54 51.92 65.27 51.8C65.01 51.69 64.81 51.54 64.67 51.35L65.07 50.84C65.33 51.15 65.65 51.31 66.04 51.31C66.32 51.31 66.54 51.23 66.71 51.08C66.87 50.93 66.95 50.7 66.95 50.41L66.95 50.15C66.71 50.42 66.38 50.56 65.97 50.56C65.53 50.56 65.16 50.38 64.88 50.03C64.6 49.68 64.46 49.2 64.46 48.58L64.46 48.59ZM65.3 48.66C65.3 49.03 65.38 49.33 65.54 49.55C65.69 49.77 65.91 49.88 66.18 49.88C66.52 49.88 66.78 49.73 66.94 49.44L66.94 47.78C66.78 47.5 66.53 47.35 66.19 47.35C65.91 47.35 65.69 47.46 65.53 47.68C65.38 47.9 65.3 48.23 65.3 48.66L65.3 48.66Z" fill="#E2E2E2" fill-opacity="1.000000" fill-rule="nonzero"/>
			<path id="Vector" d="M70.81 50.13C70.56 50.42 70.21 50.56 69.75 50.56C69.34 50.56 69.03 50.45 68.82 50.21C68.61 49.97 68.5 49.62 68.5 49.17L68.5 46.73L69.36 46.73L69.36 49.16C69.36 49.64 69.56 49.88 69.95 49.88C70.35 49.88 70.64 49.73 70.79 49.43L70.79 46.73L71.64 46.73L71.64 50.49L70.84 50.49L70.82 50.13L70.81 50.13Z" fill="#E2E2E2" fill-opacity="1.000000" fill-rule="nonzero"/>
			<path id="Vector" d="M74.62 50.49C74.58 50.42 74.55 50.3 74.52 50.14C74.25 50.43 73.92 50.56 73.53 50.56C73.14 50.56 72.84 50.46 72.6 50.24C72.35 50.02 72.24 49.76 72.24 49.44C72.24 49.04 72.38 48.73 72.69 48.52C72.99 48.3 73.41 48.2 73.97 48.2L74.49 48.2L74.49 47.95C74.49 47.75 74.44 47.6 74.33 47.48C74.22 47.36 74.05 47.31 73.83 47.31C73.63 47.31 73.48 47.35 73.35 47.45C73.23 47.55 73.17 47.67 73.17 47.82L72.32 47.82C72.32 47.61 72.39 47.42 72.52 47.24C72.66 47.06 72.85 46.92 73.09 46.82C73.32 46.72 73.59 46.67 73.88 46.67C74.32 46.67 74.67 46.78 74.94 47C75.2 47.22 75.34 47.53 75.34 47.93L75.34 49.63C75.34 49.97 75.39 50.24 75.49 50.44L75.49 50.5L74.62 50.5L74.62 50.49ZM73.69 49.89C73.85 49.89 74.01 49.84 74.16 49.76C74.31 49.68 74.42 49.57 74.49 49.44L74.49 48.73L74.04 48.73C73.72 48.73 73.48 48.78 73.32 48.89C73.17 49 73.09 49.16 73.09 49.35C73.09 49.52 73.14 49.64 73.25 49.74C73.35 49.84 73.5 49.89 73.68 49.89L73.69 49.89Z" fill="#E2E2E2" fill-opacity="1.000000" fill-rule="nonzero"/>
			<path id="Vector" d="M75.94 48.59C75.94 48 76.08 47.54 76.36 47.18C76.63 46.83 77 46.66 77.46 46.66C77.89 46.66 78.23 46.81 78.48 47.11L78.51 46.73L79.28 46.73L79.28 50.38C79.28 50.87 79.13 51.26 78.82 51.55C78.51 51.83 78.09 51.97 77.57 51.97C77.29 51.97 77.02 51.92 76.76 51.8C76.49 51.69 76.29 51.54 76.15 51.35L76.56 50.84C76.82 51.15 77.14 51.31 77.52 51.31C77.8 51.31 78.03 51.23 78.19 51.08C78.35 50.93 78.43 50.7 78.43 50.41L78.43 50.15C78.19 50.42 77.86 50.56 77.46 50.56C77.01 50.56 76.65 50.38 76.37 50.03C76.09 49.68 75.95 49.2 75.95 48.58L75.94 48.59ZM76.79 48.66C76.79 49.03 76.87 49.33 77.02 49.55C77.18 49.77 77.39 49.88 77.67 49.88C78.01 49.88 78.26 49.73 78.43 49.44L78.43 47.78C78.27 47.5 78.02 47.35 77.67 47.35C77.39 47.35 77.17 47.46 77.02 47.68C76.86 47.9 76.79 48.23 76.79 48.66L76.79 48.66Z" fill="#E2E2E2" fill-opacity="1.000000" fill-rule="nonzero"/>
			<path id="Vector" d="M81.68 50.56C81.14 50.56 80.7 50.4 80.37 50.06C80.03 49.72 79.86 49.27 79.86 48.71L79.86 48.61C79.86 48.23 79.94 47.89 80.08 47.6C80.23 47.31 80.43 47.08 80.7 46.91C80.96 46.74 81.25 46.66 81.58 46.66C82.09 46.66 82.49 46.83 82.77 47.15C83.05 47.48 83.19 47.94 83.19 48.54L83.19 48.88L80.72 48.88C80.75 49.19 80.85 49.44 81.03 49.62C81.21 49.8 81.44 49.89 81.72 49.89C82.11 49.89 82.43 49.73 82.67 49.42L83.13 49.85C82.98 50.08 82.78 50.25 82.53 50.37C82.28 50.5 81.99 50.56 81.68 50.56L81.68 50.56ZM81.57 47.34C81.34 47.34 81.15 47.42 81.01 47.58C80.87 47.75 80.77 47.97 80.74 48.26L82.36 48.26L82.36 48.2C82.34 47.92 82.26 47.7 82.13 47.56C82 47.41 81.81 47.34 81.58 47.34L81.57 47.34Z" fill="#E2E2E2" fill-opacity="1.000000" fill-rule="nonzero"/>
			<path id="Vector" d="M86.9 49.89C87.12 49.89 87.29 49.83 87.43 49.7C87.57 49.58 87.65 49.43 87.66 49.25L88.46 49.25C88.45 49.48 88.37 49.7 88.24 49.9C88.1 50.1 87.91 50.27 87.67 50.38C87.44 50.5 87.18 50.56 86.91 50.56C86.38 50.56 85.96 50.39 85.65 50.05C85.34 49.71 85.19 49.24 85.19 48.64L85.19 48.55C85.19 47.98 85.34 47.52 85.65 47.18C85.96 46.83 86.38 46.66 86.91 46.66C87.36 46.66 87.73 46.79 88.01 47.05C88.29 47.32 88.44 47.66 88.46 48.08L87.66 48.08C87.65 47.86 87.57 47.69 87.44 47.55C87.3 47.41 87.12 47.34 86.9 47.34C86.63 47.34 86.42 47.44 86.27 47.64C86.12 47.84 86.04 48.14 86.04 48.54L86.04 48.68C86.04 49.09 86.12 49.39 86.26 49.59C86.41 49.79 86.62 49.89 86.9 49.89L86.9 49.89Z" fill="#E2E2E2" fill-opacity="1.000000" fill-rule="nonzero"/>
			<path id="Vector" d="M90.62 50.56C90.09 50.56 89.65 50.4 89.31 50.06C88.98 49.72 88.81 49.27 88.81 48.71L88.81 48.61C88.81 48.23 88.88 47.89 89.03 47.6C89.18 47.31 89.38 47.08 89.64 46.91C89.91 46.74 90.2 46.66 90.52 46.66C91.04 46.66 91.44 46.83 91.72 47.15C92 47.48 92.14 47.94 92.14 48.54L92.14 48.88L89.66 48.88C89.69 49.19 89.8 49.44 89.98 49.62C90.16 49.8 90.39 49.89 90.67 49.89C91.06 49.89 91.37 49.73 91.62 49.42L92.08 49.85C91.93 50.08 91.72 50.25 91.47 50.37C91.22 50.5 90.94 50.56 90.62 50.56L90.62 50.56ZM90.52 47.34C90.29 47.34 90.1 47.42 89.96 47.58C89.81 47.75 89.72 47.97 89.68 48.26L91.3 48.26L91.3 48.2C91.29 47.92 91.21 47.7 91.08 47.56C90.95 47.41 90.76 47.34 90.52 47.34L90.52 47.34Z" fill="#E2E2E2" fill-opacity="1.000000" fill-rule="nonzero"/>
			<path id="Vector" d="M93.44 46.73L93.47 47.16C93.75 46.83 94.12 46.66 94.57 46.66C95.36 46.66 95.76 47.11 95.77 48.01L95.77 50.49L94.92 50.49L94.92 48.06C94.92 47.82 94.87 47.64 94.77 47.53C94.66 47.41 94.49 47.35 94.25 47.35C93.91 47.35 93.66 47.51 93.49 47.82L93.49 50.49L92.64 50.49L92.64 46.73L93.44 46.73L93.44 46.73Z" fill="#E2E2E2" fill-opacity="1.000000" fill-rule="nonzero"/>
			<path id="Vector" d="M97.56 45.82L97.56 46.73L98.23 46.73L98.23 47.36L97.56 47.36L97.56 49.46C97.56 49.6 97.59 49.7 97.65 49.77C97.7 49.83 97.81 49.86 97.96 49.86C98.05 49.86 98.15 49.85 98.25 49.83L98.25 50.48C98.06 50.54 97.87 50.56 97.69 50.56C97.04 50.56 96.71 50.2 96.71 49.49L96.71 47.36L96.09 47.36L96.09 46.73L96.71 46.73L96.71 45.82L97.56 45.82L97.56 45.82Z" fill="#E2E2E2" fill-opacity="1.000000" fill-rule="nonzero"/>
			<path id="Vector" d="M100.4 50.56C99.86 50.56 99.42 50.4 99.09 50.06C98.75 49.72 98.59 49.27 98.59 48.71L98.59 48.61C98.59 48.23 98.66 47.89 98.81 47.6C98.95 47.31 99.16 47.08 99.42 46.91C99.69 46.74 99.98 46.66 100.3 46.66C100.82 46.66 101.21 46.83 101.5 47.15C101.78 47.48 101.92 47.94 101.92 48.54L101.92 48.88L99.44 48.88C99.47 49.19 99.57 49.44 99.75 49.62C99.94 49.8 100.17 49.89 100.44 49.89C100.83 49.89 101.15 49.73 101.4 49.42L101.86 49.85C101.7 50.08 101.5 50.25 101.25 50.37C101 50.5 100.71 50.56 100.4 50.56L100.4 50.56ZM100.3 47.34C100.07 47.34 99.88 47.42 99.73 47.58C99.59 47.75 99.5 47.97 99.46 48.26L101.08 48.26L101.08 48.2C101.06 47.92 100.98 47.7 100.85 47.56C100.72 47.41 100.54 47.34 100.3 47.34L100.3 47.34Z" fill="#E2E2E2" fill-opacity="1.000000" fill-rule="nonzero"/>
			<path id="Vector" d="M104.42 47.5C104.3 47.48 104.19 47.48 104.07 47.48C103.68 47.48 103.42 47.62 103.28 47.92L103.28 50.49L102.43 50.49L102.43 46.73L103.24 46.73L103.27 47.15C103.47 46.83 103.76 46.66 104.12 46.66C104.24 46.66 104.34 46.68 104.42 46.71L104.42 47.5L104.42 47.5Z" fill="#E2E2E2" fill-opacity="1.000000" fill-rule="nonzero"/>
			<path id="Vector" d="M30.3 0.08C30.6 0.1 30.7 0.49 30.44 0.65C11.5 12.45 12.75 32.39 25.45 41.44C35.01 48.26 42.72 47.17 44.62 46.81C44.73 46.79 44.8 46.94 44.71 47.01C42.91 48.42 34.65 54.28 22.75 52.74C9.77 51.06 -0.26 39.62 0 27.09C0.3 12.8 12.2 -1.19 30.3 0.08Z" fill="#E2E2E2" fill-opacity="1.000000" fill-rule="nonzero"/>
			<path id="Vector" d="M31.69 1.07C32.3 0.75 33.35 0.57 34.03 0.67C45.43 2.33 49.04 11.89 49.15 15.82C49.4 24.14 41.87 30.32 39.51 35.54C38.5 37.76 39.4 41.03 46.4 42.61C46.53 42.64 46.54 42.82 46.41 42.86C38.58 44.94 23.34 37.94 20.8 25.34C18.79 15.35 24.25 5.04 31.69 1.07Z" fill="#FFEFD9" fill-opacity="1.000000" fill-rule="nonzero"/>
			<path id="Vector" d="M54.05 7.79C54.05 7.19 54.17 6.63 54.4 6.1C54.63 5.57 54.95 5.11 55.34 4.71C55.74 4.32 56.21 4 56.74 3.78C57.27 3.55 57.84 3.43 58.44 3.43L65.15 3.43L65.15 6.34L58.44 6.34C58.24 6.34 58.05 6.38 57.87 6.45C57.7 6.53 57.54 6.63 57.41 6.76C57.27 6.89 57.17 7.05 57.1 7.23C57.02 7.4 56.98 7.59 56.98 7.79C56.98 8 57.02 8.19 57.1 8.37C57.17 8.54 57.27 8.7 57.41 8.83C57.54 8.96 57.69 9.07 57.87 9.14C58.05 9.21 58.24 9.25 58.44 9.25L61.37 9.25C61.98 9.25 62.54 9.37 63.08 9.59C63.61 9.82 64.08 10.13 64.47 10.53C64.87 10.92 65.18 11.38 65.41 11.91C65.64 12.45 65.75 13.01 65.75 13.62C65.75 14.22 65.64 14.78 65.41 15.31C65.18 15.84 64.87 16.3 64.47 16.7C64.08 17.09 63.61 17.4 63.08 17.63C62.54 17.86 61.97 17.98 61.37 17.98L54.87 17.98L54.87 15.07L61.37 15.07C61.57 15.07 61.76 15.03 61.94 14.95C62.12 14.88 62.27 14.78 62.4 14.64C62.54 14.51 62.64 14.36 62.71 14.18C62.79 14.01 62.83 13.82 62.83 13.62C62.83 13.41 62.79 13.22 62.71 13.05C62.64 12.87 62.53 12.72 62.4 12.59C62.27 12.46 62.12 12.35 61.94 12.28C61.76 12.2 61.57 12.16 61.37 12.16L58.44 12.16C57.84 12.16 57.27 12.05 56.74 11.82C56.21 11.59 55.74 11.28 55.34 10.88C54.95 10.49 54.63 10.02 54.4 9.49C54.17 8.96 54.05 8.4 54.05 7.79Z" fill="#E2E2E2" fill-opacity="1.000000" fill-rule="nonzero"/>
			<path id="Vector" d="M72.25 17.98C71.58 17.98 70.95 17.85 70.36 17.6C69.76 17.35 69.25 17 68.8 16.55C68.36 16.11 68 15.59 67.75 15.01C67.5 14.42 67.37 13.79 67.37 13.12L67.37 9.89L66.01 9.89L66.01 7.13L67.37 7.13L67.37 2.79L70.14 2.79L70.14 7.13L74.37 7.13L74.37 9.89L70.14 9.89L70.14 13.12C70.14 13.41 70.2 13.68 70.31 13.94C70.42 14.19 70.57 14.41 70.76 14.6C70.95 14.79 71.17 14.94 71.43 15.05C71.69 15.16 71.96 15.22 72.26 15.22L74.37 15.22L74.37 17.98L72.26 17.98L72.25 17.98Z" fill="#E2E2E2" fill-opacity="1.000000" fill-rule="nonzero"/>
			<path id="Vector" d="M83.53 16.71C83.31 16.91 83.07 17.1 82.82 17.28C82.56 17.46 82.29 17.62 82.02 17.75C81.74 17.88 81.45 17.99 81.15 18.06C80.86 18.14 80.56 18.18 80.25 18.18C79.58 18.18 78.94 18.06 78.35 17.82C77.76 17.59 77.24 17.25 76.8 16.81C76.35 16.38 76 15.85 75.75 15.22C75.49 14.59 75.37 13.89 75.37 13.12L75.37 7.11L78.14 7.11L78.14 13.12C78.14 13.48 78.2 13.81 78.31 14.1C78.42 14.38 78.57 14.62 78.76 14.82C78.95 15.02 79.17 15.16 79.43 15.27C79.68 15.37 79.96 15.42 80.25 15.42C80.54 15.42 80.81 15.35 81.06 15.22C81.32 15.09 81.54 14.91 81.73 14.7C81.92 14.48 82.07 14.23 82.18 13.96C82.29 13.69 82.34 13.4 82.34 13.11L82.34 7.11L85.13 7.11L85.13 17.97L84.45 17.97L83.53 16.71L83.53 16.71Z" fill="#E2E2E2" fill-opacity="1.000000" fill-rule="nonzero"/>
			<path id="Vector" d="M97.39 17.98L96.71 17.98L95.63 16.49C95.37 16.73 95.09 16.94 94.79 17.15C94.5 17.36 94.19 17.54 93.86 17.69C93.53 17.84 93.2 17.96 92.85 18.05C92.51 18.14 92.16 18.18 91.81 18.18C91.04 18.18 90.32 18.04 89.64 17.75C88.97 17.46 88.37 17.06 87.87 16.55C87.36 16.04 86.96 15.44 86.66 14.74C86.37 14.04 86.23 13.27 86.23 12.45C86.23 11.62 86.37 10.87 86.66 10.17C86.96 9.46 87.36 8.86 87.87 8.34C88.37 7.83 88.96 7.43 89.64 7.13C90.32 6.84 91.04 6.7 91.81 6.7C92.05 6.7 92.31 6.72 92.57 6.76C92.83 6.8 93.08 6.87 93.33 6.96C93.58 7.05 93.81 7.17 94.03 7.32C94.25 7.47 94.43 7.65 94.58 7.87L94.58 2.79L97.39 2.79L97.39 17.98ZM94.58 12.45C94.58 12.07 94.51 11.7 94.37 11.35C94.22 10.99 94.02 10.68 93.77 10.4C93.52 10.13 93.22 9.91 92.88 9.75C92.55 9.58 92.19 9.5 91.81 9.5C91.43 9.5 91.07 9.56 90.73 9.7C90.39 9.83 90.1 10.03 89.85 10.28C89.6 10.54 89.41 10.85 89.26 11.21C89.12 11.58 89.05 11.99 89.05 12.45C89.05 12.85 89.12 13.23 89.26 13.59C89.41 13.94 89.6 14.26 89.85 14.53C90.1 14.8 90.39 15.01 90.73 15.17C91.07 15.32 91.43 15.4 91.81 15.4C92.19 15.4 92.55 15.32 92.88 15.15C93.22 14.99 93.51 14.77 93.77 14.49C94.02 14.22 94.22 13.91 94.37 13.55C94.51 13.19 94.58 12.83 94.58 12.45Z" fill="#E2E2E2" fill-opacity="1.000000" fill-rule="nonzero"/>
			<path id="Vector" d="M109.65 17.98L108.98 17.98L107.9 16.49C107.63 16.73 107.35 16.94 107.06 17.15C106.76 17.36 106.45 17.54 106.12 17.69C105.79 17.84 105.46 17.96 105.11 18.05C104.77 18.14 104.42 18.18 104.07 18.18C103.3 18.18 102.58 18.04 101.9 17.75C101.23 17.46 100.64 17.06 100.13 16.55C99.62 16.04 99.22 15.44 98.93 14.74C98.64 14.04 98.49 13.27 98.49 12.45C98.49 11.62 98.64 10.87 98.93 10.17C99.22 9.46 99.62 8.86 100.13 8.34C100.64 7.83 101.23 7.43 101.9 7.13C102.58 6.84 103.3 6.7 104.07 6.7C104.31 6.7 104.57 6.72 104.83 6.76C105.09 6.8 105.35 6.87 105.6 6.96C105.84 7.05 106.08 7.17 106.29 7.32C106.51 7.47 106.69 7.65 106.85 7.87L106.85 2.79L109.65 2.79L109.65 17.98ZM106.85 12.45C106.85 12.07 106.77 11.7 106.63 11.35C106.48 10.99 106.28 10.68 106.03 10.4C105.78 10.13 105.48 9.91 105.15 9.75C104.81 9.58 104.45 9.5 104.07 9.5C103.69 9.5 103.33 9.56 102.99 9.7C102.66 9.83 102.36 10.03 102.12 10.28C101.87 10.54 101.67 10.85 101.53 11.21C101.38 11.58 101.31 11.99 101.31 12.45C101.31 12.85 101.38 13.23 101.53 13.59C101.67 13.94 101.86 14.26 102.12 14.53C102.36 14.8 102.66 15.01 102.99 15.17C103.33 15.32 103.69 15.4 104.07 15.4C104.45 15.4 104.81 15.32 105.15 15.15C105.48 14.99 105.78 14.77 106.03 14.49C106.28 14.22 106.48 13.91 106.63 13.55C106.77 13.19 106.85 12.83 106.85 12.45Z" fill="#E2E2E2" fill-opacity="1.000000" fill-rule="nonzero"/>
			<path id="Vector" d="M113.98 22.11L113.98 19.32L115.54 19.35C115.81 19.35 116.07 19.3 116.32 19.21C116.57 19.13 116.81 19 117.02 18.85C117.23 18.7 117.42 18.51 117.59 18.3C117.75 18.09 117.88 17.85 117.98 17.6C117.68 17.73 117.37 17.86 117.05 17.99C116.73 18.12 116.41 18.18 116.1 18.18C115.42 18.18 114.79 18.06 114.2 17.83C113.61 17.59 113.09 17.25 112.64 16.82C112.2 16.38 111.85 15.85 111.59 15.22C111.34 14.6 111.21 13.9 111.21 13.12L111.21 7.12L113.98 7.12L113.98 13.12C113.98 13.51 114.04 13.84 114.15 14.13C114.27 14.42 114.41 14.66 114.61 14.85C114.8 15.04 115.02 15.18 115.27 15.28C115.53 15.37 115.8 15.42 116.1 15.42C116.39 15.42 116.65 15.36 116.91 15.22C117.16 15.09 117.38 14.92 117.58 14.7C117.77 14.48 117.92 14.24 118.02 13.97C118.13 13.69 118.19 13.41 118.19 13.12L118.19 7.12L120.99 7.12L120.99 16.61C120.99 17.37 120.84 18.09 120.54 18.76C120.25 19.43 119.85 20.02 119.35 20.51C118.84 21.02 118.25 21.41 117.58 21.7C116.9 21.99 116.18 22.14 115.41 22.14L113.98 22.12L113.98 22.11Z" fill="#E2E2E2" fill-opacity="1.000000" fill-rule="nonzero"/>
			<path id="Vector" d="M66.61 35.57C66.61 36.18 66.5 36.74 66.27 37.27C66.03 37.8 65.72 38.26 65.32 38.65C64.93 39.05 64.46 39.36 63.93 39.59C63.4 39.82 62.83 39.94 62.23 39.94L54.91 39.94L54.91 25.39L62.23 25.39C62.83 25.39 63.4 25.51 63.93 25.74C64.46 25.97 64.92 26.28 65.32 26.67C65.72 27.07 66.04 27.53 66.27 28.06C66.5 28.59 66.61 29.15 66.61 29.75C66.61 30.02 66.57 30.3 66.5 30.59C66.42 30.87 66.32 31.14 66.18 31.41C66.05 31.67 65.88 31.91 65.69 32.13C65.5 32.35 65.29 32.52 65.06 32.67C65.3 32.79 65.51 32.97 65.7 33.19C65.89 33.41 66.05 33.65 66.19 33.91C66.33 34.18 66.43 34.45 66.5 34.74C66.57 35.03 66.61 35.31 66.61 35.58L66.61 35.57ZM57.84 31.21L62.23 31.21C62.43 31.21 62.62 31.18 62.8 31.1C62.97 31.02 63.13 30.92 63.26 30.79C63.39 30.66 63.49 30.5 63.57 30.32C63.64 30.15 63.68 29.95 63.68 29.75C63.68 29.55 63.64 29.36 63.57 29.18C63.49 29.01 63.39 28.86 63.26 28.72C63.13 28.59 62.97 28.49 62.8 28.41C62.62 28.34 62.43 28.3 62.23 28.3L57.84 28.3L57.84 31.21ZM57.84 37.02L62.23 37.02C62.43 37.02 62.62 36.99 62.8 36.91C62.97 36.84 63.13 36.73 63.26 36.6C63.39 36.47 63.49 36.32 63.57 36.14C63.64 35.97 63.68 35.78 63.68 35.57C63.68 35.37 63.64 35.18 63.57 35.01C63.49 34.83 63.39 34.68 63.26 34.54C63.13 34.41 62.97 34.31 62.8 34.24C62.62 34.16 62.43 34.12 62.23 34.12L57.84 34.12L57.84 37.02Z" fill="#E2E2E2" fill-opacity="1.000000" fill-rule="nonzero"/>
			<path id="Vector" d="M76.14 38.67C75.91 38.87 75.67 39.06 75.42 39.24C75.16 39.42 74.9 39.58 74.62 39.71C74.34 39.84 74.05 39.94 73.76 40.02C73.46 40.1 73.16 40.14 72.86 40.14C72.18 40.14 71.55 40.02 70.96 39.78C70.37 39.54 69.85 39.21 69.4 38.77C68.96 38.34 68.61 37.81 68.35 37.18C68.1 36.55 67.97 35.85 67.97 35.08L67.97 29.07L70.75 29.07L70.75 35.08C70.75 35.44 70.8 35.77 70.91 36.05C71.03 36.34 71.18 36.58 71.37 36.78C71.56 36.97 71.78 37.12 72.04 37.22C72.29 37.32 72.56 37.37 72.86 37.37C73.15 37.37 73.41 37.31 73.67 37.18C73.92 37.05 74.15 36.87 74.34 36.65C74.53 36.44 74.68 36.19 74.78 35.92C74.89 35.64 74.95 35.36 74.95 35.07L74.95 29.07L77.73 29.07L77.73 39.93L77.06 39.93L76.14 38.67L76.14 38.67Z" fill="#E2E2E2" fill-opacity="1.000000" fill-rule="nonzero"/>
			<path id="Vector" d="M89.99 39.94L89.32 39.94L88.24 38.45C87.97 38.68 87.69 38.9 87.4 39.11C87.1 39.32 86.79 39.5 86.46 39.65C86.13 39.8 85.8 39.92 85.46 40.01C85.11 40.1 84.76 40.14 84.41 40.14C83.64 40.14 82.92 40 82.25 39.71C81.57 39.42 80.98 39.02 80.47 38.51C79.96 38 79.56 37.4 79.27 36.7C78.98 36 78.83 35.23 78.83 34.41C78.83 33.58 78.98 32.83 79.27 32.13C79.56 31.42 79.96 30.81 80.47 30.3C80.98 29.79 81.57 29.38 82.25 29.09C82.92 28.8 83.64 28.66 84.41 28.66C84.66 28.66 84.91 28.68 85.17 28.72C85.44 28.76 85.69 28.83 85.94 28.92C86.18 29.01 86.42 29.13 86.64 29.28C86.85 29.43 87.04 29.61 87.19 29.83L87.19 24.75L89.99 24.75L89.99 39.94L89.99 39.94ZM87.19 34.41C87.19 34.03 87.11 33.66 86.97 33.31C86.82 32.95 86.62 32.64 86.37 32.36C86.12 32.09 85.83 31.87 85.49 31.7C85.15 31.54 84.79 31.46 84.41 31.46C84.03 31.46 83.67 31.52 83.33 31.66C83 31.79 82.71 31.99 82.46 32.24C82.21 32.49 82.01 32.81 81.87 33.17C81.73 33.54 81.65 33.95 81.65 34.41C81.65 34.81 81.73 35.18 81.87 35.54C82.01 35.9 82.21 36.22 82.46 36.49C82.71 36.76 83 36.97 83.33 37.13C83.67 37.28 84.03 37.36 84.41 37.36C84.79 37.36 85.15 37.28 85.49 37.11C85.83 36.94 86.12 36.73 86.37 36.45C86.62 36.18 86.82 35.86 86.97 35.51C87.12 35.15 87.19 34.79 87.19 34.41Z" fill="#E2E2E2" fill-opacity="1.000000" fill-rule="nonzero"/>
			<path id="Vector" d="M102.25 39.94L101.58 39.94L100.5 38.45C100.23 38.68 99.95 38.9 99.66 39.11C99.36 39.32 99.05 39.5 98.72 39.65C98.39 39.8 98.06 39.92 97.72 40.01C97.37 40.1 97.02 40.14 96.67 40.14C95.9 40.14 95.18 40 94.5 39.71C93.83 39.42 93.24 39.02 92.73 38.51C92.22 38 91.82 37.4 91.53 36.7C91.24 36 91.09 35.23 91.09 34.41C91.09 33.58 91.24 32.83 91.53 32.13C91.82 31.42 92.22 30.81 92.73 30.3C93.24 29.79 93.83 29.38 94.5 29.09C95.18 28.8 95.9 28.66 96.67 28.66C96.92 28.66 97.17 28.68 97.43 28.72C97.7 28.76 97.95 28.83 98.2 28.92C98.44 29.01 98.68 29.13 98.9 29.28C99.11 29.43 99.29 29.61 99.45 29.83L99.45 24.75L102.25 24.75L102.25 39.94L102.25 39.94ZM99.45 34.41C99.45 34.03 99.37 33.66 99.23 33.31C99.08 32.95 98.88 32.64 98.63 32.36C98.38 32.09 98.09 31.87 97.75 31.7C97.41 31.54 97.05 31.46 96.67 31.46C96.29 31.46 95.93 31.52 95.59 31.66C95.26 31.79 94.96 31.99 94.72 32.24C94.47 32.49 94.27 32.81 94.13 33.17C93.99 33.54 93.91 33.95 93.91 34.41C93.91 34.81 93.99 35.18 94.13 35.54C94.27 35.9 94.47 36.22 94.72 36.49C94.96 36.76 95.26 36.97 95.59 37.13C95.93 37.28 96.29 37.36 96.67 37.36C97.05 37.36 97.41 37.28 97.75 37.11C98.09 36.94 98.38 36.73 98.63 36.45C98.88 36.18 99.08 35.86 99.23 35.51C99.38 35.15 99.45 34.79 99.45 34.41Z" fill="#E2E2E2" fill-opacity="1.000000" fill-rule="nonzero"/>
			<path id="Vector" d="M106.59 44.07L106.59 41.28L108.14 41.3C108.41 41.3 108.68 41.26 108.93 41.17C109.18 41.08 109.41 40.96 109.62 40.81C109.84 40.65 110.03 40.47 110.19 40.26C110.36 40.05 110.49 39.81 110.59 39.56C110.28 39.69 109.97 39.82 109.65 39.95C109.34 40.08 109.02 40.14 108.7 40.14C108.02 40.14 107.39 40.02 106.8 39.78C106.21 39.55 105.69 39.21 105.25 38.78C104.8 38.34 104.45 37.81 104.2 37.18C103.94 36.56 103.81 35.86 103.81 35.08L103.81 29.08L106.59 29.08L106.59 35.08C106.59 35.46 106.65 35.8 106.76 36.09C106.87 36.37 107.02 36.62 107.21 36.81C107.4 37 107.62 37.14 107.88 37.24C108.13 37.33 108.41 37.38 108.7 37.38C108.99 37.38 109.25 37.32 109.51 37.18C109.77 37.05 109.99 36.88 110.18 36.66C110.37 36.44 110.52 36.2 110.63 35.92C110.73 35.65 110.79 35.37 110.79 35.08L110.79 29.08L113.6 29.08L113.6 38.57C113.59 39.33 113.44 40.05 113.15 40.72C112.86 41.39 112.46 41.97 111.95 42.47C111.44 42.97 110.85 43.37 110.18 43.66C109.51 43.95 108.79 44.1 108.02 44.1L106.59 44.08L106.59 44.07Z" fill="#E2E2E2" fill-opacity="1.000000" fill-rule="nonzero"/>
		</g>
	</g>
</svg>
